DataType=double
version=3
OpenSimVersion=4.3
endheader
time	trunk_rz	trunk_rx	trunk_ry	trunk_tx	trunk_ty	trunk_tz	neck_flexion	neck_lateral_bending	neck_rotation	arm_flex_r	arm_add_r	arm_rot_r	elbow_flex_r	pro_sup_r	wrist_flex_r	wrist_dev_r	hand_finger_flex_r
13.4703	0.5577197680843371	0.6134461079438775	-2.321477041668529	-0.6371878872279602	0.9931524979281667	-1.041811745085192	0	0	0	2.177829810209435	0.05806092352071961	1.022926946794929	1.331301384379934	-1.17789898063093	-0.5202465395886907	-0.43633231	0
13.48026	0.5556207606980795	0.6059235319098066	-2.316735141862504	-0.6369597105047721	0.9930972425639192	-1.038913766459764	0	0	0	2.18748367318144	0.06054413132235501	1.017442753298551	1.333466678562793	-1.177233018719526	-0.5191493186964308	-0.43633231	0
13.49122	0.5755319606027135	0.611191755713464	-2.303780985324048	-0.6312306482261707	0.9984064245669542	-1.040667340269229	0	0	0	2.255435154767474	0.03672967470297695	1.077367539968319	1.338079182565405	-1.213330120087113	-0.4745705054821481	-0.43633231	0
13.50117	0.5749803928228442	0.6079339596081552	-2.297210059238016	-0.6308271214108822	0.9993396416054943	-1.039463954630932	0	0	0	2.267050281375584	0.03722511790846741	1.068883243602765	1.337508589921807	-1.212798879788595	-0.4710260783118532	-0.43633231	0
13.51312	0.5886202981299342	0.6091238685272189	-2.29342448170624	-0.6271144517167497	1.00283297977296	-1.039505121071153	0	0	0	2.314954837399199	0.02677321011200505	1.112615706079814	1.338612731879492	-1.256387800927644	-0.3646480691867454	-0.43633231	0
13.52109	0.5867507955186144	0.6024642914171451	-2.288804543137522	-0.6268555515621821	1.002920081468516	-1.036896498407427	0	0	0	2.323514076956193	0.0286221809386751	1.107076345993239	1.340150490391805	-1.25583914164864	-0.3637521648041505	-0.43633231	0
13.53105	0.5850711763188852	0.6053703737200409	-2.277912159938734	-0.6268791285548944	1.00455127268814	-1.037854280938712	0	0	0	2.338996447278167	0.01976981461110157	1.099109071740859	1.345393472452613	-1.258736064951308	-0.3614331023703042	-0.43633231	0
13.542	0.5831833297649863	0.599015475647199	-2.273628752307999	-0.6266434664558678	1.004601575124956	-1.035370671503205	0	0	0	2.347216573691059	0.02146302381459197	1.094203764930788	1.346674580332806	-1.258098451438195	-0.3605607898440102	-0.43633231	0
13.55096	0.5928528722370986	0.6029137191284881	-2.258094319290232	-0.6236693298389294	1.007932104711638	-1.036763931194121	0	0	0	2.400175929481293	0.001339780839119451	1.147771679289639	1.348490808334745	-1.328533585250203	-0.2536701222960893	-0.43633231	0
13.56092	0.5911988387885477	0.5970174409617337	-2.253919709285429	-0.623457395481862	1.008010989546634	-1.034452123286842	0	0	0	2.4078793297098	0.003033041260320401	1.142833934100088	1.349585595366523	-1.327782803356103	-0.2528126839313011	-0.43633231	0
13.57187	0.5909258753414486	0.5998492520580943	-2.244940809494242	-0.6233099318571996	1.009719994982743	-1.035425858042525	0	0	0	2.422875789784902	-0.003432018934374319	1.138356921478526	1.352611923263161	-1.323160413798733	-0.2496907637392634	-0.43633231	0
13.58183	0.5894157254380844	0.5943677536880635	-2.241181331177134	-0.6230866424491461	1.009851757656168	-1.033290575529906	0	0	0	2.429851208131993	-0.002066296967041716	1.134035866171581	1.353421472665791	-1.322458029686141	-0.2489122516833815	-0.43633231	0
13.59079	0.5897772577750309	0.5957533680958602	-2.227839450798462	-0.6224887748064192	1.011374958981876	-1.033979267735947	0	0	0	2.452735196601579	-0.01237003026516789	1.149353360056207	1.356366000538978	-1.31415510353241	-0.2411264616870996	-0.43633231	0
13.59975	0.5886120480905545	0.590750416590332	-2.224492826029222	-0.6221925977875272	1.011534891484496	-1.031997956088896	0	0	0	2.459192100602203	-0.01121024430200739	1.145151462656892	1.356968039065376	-1.313600077771924	-0.2403623253745892	-0.43633231	0
13.6117	0.5879331256481154	0.5927807138963662	-2.217640842512488	-0.622252392852067	1.012775718449008	-1.032807931668847	0	0	0	2.470894042041046	-0.01414619584551708	1.139526971975745	1.354867436306683	-1.312614924726759	-0.2372772733797194	-0.43633231	0
13.62067	0.5870810796774032	0.5882140204685442	-2.21454728767908	-0.6219561650461277	1.012984172108514	-1.030980414390924	0	0	0	2.476625347338159	-0.01337763202083372	1.135885292598043	1.355534412110336	-1.312097124191994	-0.2365449412484061	-0.43633231	0
13.63062	0.5875900767066823	0.5903599993941094	-2.199934994049932	-0.6212869032257671	1.01454048537005	-1.031868831887983	0	0	0	2.499813123824272	-0.02681975096628195	1.155892300315522	1.360724625583397	-1.314199102332886	-0.2189815460945767	-0.43633231	0
13.63958	0.5867329322976452	0.5863030301894809	-2.197321023908876	-0.6210536083235529	1.014667954100467	-1.030208652820807	0	0	0	2.505068231438033	-0.02604806198575146	1.152393406636212	1.36107664170615	-1.313816900350713	-0.2182863390140992	-0.43633231	0
13.64954	0.5862638842323628	0.5884464049404954	-2.191617851951128	-0.6211052188017064	1.015733304081398	-1.03104735199677	0	0	0	2.514264755489219	-0.02830425660794445	1.146919372312713	1.358463116772418	-1.31424986712778	-0.2152867544000519	-0.43633231	0
13.6605	0.5854822932848825	0.5847531036431659	-2.189099696518509	-0.6208988863516257	1.015779796481988	-1.029534224247178	0	0	0	2.519001831078307	-0.02747791542496211	1.143959690110024	1.359077717950545	-1.313929366315184	-0.2146772783228086	-0.43633231	0
13.67045	0.5928695060544347	0.589294611268617	-2.174009101139107	-0.6188541217772795	1.018209025603604	-1.030985379772751	0	0	0	2.570702937899751	-0.04673099436303189	1.218725697483631	1.361208310335054	-1.449770272095181	0.005363198204310929	-0.43633231	0
13.68141	0.5920339825992298	0.5861628421439894	-2.171934521810023	-0.6186955035473114	1.018247538718775	-1.029630322623873	0	0	0	2.574729225182872	-0.04625529451651471	1.216114420523992	1.36136304754957	-1.449352329246262	0.005779932200204248	-0.43633231	0
13.69236	0.5910881166831645	0.5834527443364682	-2.16959253210529	-0.6186266960816996	1.018263424146456	-1.028460562569427	0	0	0	2.578751640292003	-0.04574645137394285	1.213603631633263	1.361412820267432	-1.448909089039274	0.006177197572584	-0.43633231	0
